#N canvas 381 64 1271 977 12;
#N canvas 622 300 387 569 kick 0;
#X obj 91 430 *~;
#X obj 91 405 cos~;
#X obj 90 381 *~;
#X obj 90 358 *~;
#X obj 107 214 t f f;
#X obj 91 334 *~;
#X obj 141 138 t b b b;
#X msg 137 275 1 0 \, 0 \$1;
#X obj 137 297 line~;
#X obj 123 14 inlet;
#X obj 92 499 outlet~;
#X msg 107 190 110;
#X obj 101 255 / 29;
#X msg 163 192 32;
#X connect 0 0 10 0;
#X connect 1 0 0 0;
#X connect 2 0 1 0;
#X connect 3 0 2 0;
#X connect 4 0 12 0;
#X connect 4 1 7 0;
#X connect 5 0 3 1;
#X connect 5 0 3 0;
#X connect 6 0 11 0;
#X connect 6 1 13 0;
#X connect 7 0 8 0;
#X connect 8 0 0 1;
#X connect 8 0 5 0;
#X connect 8 0 2 1;
#X connect 9 0 6 0;
#X connect 11 0 4 0;
#X connect 12 0 5 1;
#X connect 13 0 12 1;
#X restore 294 428 pd kick;
#X obj 311 524 dac~ 1;
#N canvas 1089 340 387 572 trikick 0;
#X obj 110 443 *~;
#X obj 110 418 cos~;
#X obj 109 394 *~;
#X obj 109 371 *~;
#X obj 126 227 t f f;
#X obj 110 347 *~;
#X obj 178 62 sel 0 1 2;
#X obj 235 94 t b b b;
#X obj 197 121 t b b b;
#X obj 160 151 t b b b;
#X msg 156 288 1 0 \, 0 \$1;
#X obj 156 310 line~;
#X obj 136 35 inlet;
#X obj 111 512 outlet~;
#X obj 126 253 / 29;
#X msg 126 203 110;
#X obj 111 480 *~ 0.5;
#X msg 259 206 15;
#X msg 182 205 8;
#X msg 222 205 12;
#X connect 0 0 16 0;
#X connect 1 0 0 0;
#X connect 2 0 1 0;
#X connect 3 0 2 0;
#X connect 4 0 14 0;
#X connect 4 1 10 0;
#X connect 5 0 3 1;
#X connect 5 0 3 0;
#X connect 6 0 9 0;
#X connect 6 1 8 0;
#X connect 6 2 7 0;
#X connect 7 0 15 0;
#X connect 7 1 17 0;
#X connect 8 0 15 0;
#X connect 8 1 19 0;
#X connect 9 0 15 0;
#X connect 9 1 18 0;
#X connect 10 0 11 0;
#X connect 11 0 0 1;
#X connect 11 0 5 0;
#X connect 11 0 2 1;
#X connect 12 0 6 0;
#X connect 14 0 5 1;
#X connect 15 0 4 0;
#X connect 16 0 13 0;
#X connect 17 0 14 1;
#X connect 18 0 14 1;
#X connect 19 0 14 1;
#X restore 369 429 pd trikick;
#X obj 311 212 r noteon_trig @hv_param;
#X msg 311 238 clear;
#X obj 307 333 f;
#X obj 337 333 + 1;
#X obj 306 302 t b b;
#X obj 307 356 mod 4;
#X obj 307 379 sel 0;
#X msg 354 357 1;
#X obj 380 392 random 4;
#X obj 454 393 random 2;
#N canvas 622 300 603 656 block 0;
#X obj 187 323 cos~;
#X obj 210 378 *~;
#X obj 262 363 line~;
#X obj 253 293 t b b;
#X msg 282 322 0 40;
#X obj 191 209 phasor~ 700;
#X obj 346 199 inlet;
#X obj 239 466 outlet~;
#X msg 232 323 0.1;
#X connect 0 0 1 0;
#X connect 1 0 7 0;
#X connect 2 0 1 1;
#X connect 3 0 4 0;
#X connect 3 1 8 0;
#X connect 4 0 2 0;
#X connect 5 0 0 0;
#X connect 6 0 3 0;
#X connect 8 0 2 0;
#X restore 457 430 pd block;
#X connect 0 0 1 0;
#X connect 2 0 1 0;
#X connect 3 0 4 0;
#X connect 4 0 7 0;
#X connect 5 0 6 0;
#X connect 5 0 8 0;
#X connect 6 0 5 1;
#X connect 7 0 11 0;
#X connect 7 0 12 0;
#X connect 7 1 5 0;
#X connect 8 0 9 0;
#X connect 9 0 0 0;
#X connect 10 0 8 1;
#X connect 11 0 2 0;
#X connect 12 0 13 0;
#X connect 13 0 1 0;
